<?xml version="1.0" encoding="utf-8"?>
<!-- Generator: Adobe Illustrator 19.1.0, SVG Export Plug-In . SVG Version: 6.00 Build 0)  -->
<svg version="1.1" id="Laag_1" xmlns="http://www.w3.org/2000/svg" xmlns:xlink="http://www.w3.org/1999/xlink" x="0px" y="0px"
	 viewBox="-232 324.3 146.7 145.7" style="enable-background:new -232 324.3 146.7 145.7;" xml:space="preserve">
<style type="text/css">
	.st0{display:none;}
	.st1{fill:#2B2B2B;}
</style>
<g id="Laag_1_1_" class="st0">
	
		<image style="display:inline;overflow:visible;enable-background:new    ;" width="3264" height="2448" xlink:href="BD7A6385.jpeg"  transform="matrix(1.192488e-008 1 -1 1.192488e-008 620 -103.0333)">
	</image>
</g>
<g id="Laag_2">
	<path class="st1" d="M-87,389.9c0-0.2,0-0.5,0-0.7c0-0.2,0-0.5,0-0.7c0-0.5-0.1-0.9-0.1-1.4c0-0.2-0.1-0.5-0.1-0.7
		c0-0.2-0.1-0.5-0.1-0.7c0-0.2-0.1-0.5-0.1-0.7c0-0.2-0.1-0.5-0.1-0.7c-0.2-1-0.4-1.9-0.7-2.9s-0.7-1.9-1.2-2.8
		c-0.5-0.9-1.1-1.8-1.8-2.6c-0.7-0.8-1.6-1.5-2.5-2.1s-1.9-1-2.9-1.3c-1-0.3-2-0.5-2.9-0.6c-1-0.1-1.9-0.1-2.8-0.1
		c-0.2,0-0.5,0-0.7,0s-0.4,0-0.6,0c-0.4-0.8-0.9-1.5-1.4-2.2l-0.2-0.3l-0.2-0.3l-0.4-0.6c-0.3-0.4-0.6-0.8-0.9-1.3
		c-0.6-0.8-1.3-1.6-1.9-2.4l0,0l-0.1-0.1l-0.1-0.1l-0.2-0.2c-0.1-0.2-0.2-0.3-0.4-0.5c-0.3-0.4-0.5-0.7-0.8-1.1
		c-0.6-0.8-1.1-1.5-1.7-2.3c-0.7-0.9-1.4-1.8-2.2-2.6c0.1-1.6,0-3.2-0.3-4.9c-0.2-0.9-0.4-1.8-0.7-2.6c-0.1-0.4-0.3-0.9-0.5-1.3
		s-0.3-0.8-0.5-1.2c-0.4-0.8-0.8-1.6-1.2-2.4c-0.2-0.4-0.5-0.8-0.7-1.1c-0.1-0.2-0.3-0.4-0.4-0.6l-0.2-0.3l-0.2-0.3l-0.4-0.5
		l-0.4-0.6l-0.2-0.3c-0.1-0.1-0.1-0.2-0.2-0.3l-0.4-0.5c-0.6-0.7-1.2-1.4-1.9-2c-1.3-1.3-2.7-2.4-4.2-3.5s-3.1-2-4.7-2.8
		c-3.2-1.7-6.6-3-10.1-4s-7-1.7-10.6-2.2s-7.2-0.7-10.8-0.6c-1.8,0-3.6,0.1-5.5,0.4c-0.9,0.1-1.9,0.3-2.8,0.5l-0.4,0.1l-0.4,0.1
		c-0.1,0-0.2,0.1-0.4,0.1l-0.2,0.1c-0.1,0-0.1,0-0.2,0.1l-0.4-0.2c-0.1,0-0.1,0-0.2,0.1l-0.2,0.1l-0.3,0.1c-0.1,0-0.2,0.1-0.3,0.1
		c-0.4,0.1-0.7,0.3-1.1,0.4c-0.4,0.1-0.8,0.3-1.2,0.4c-0.8,0.3-1.6,0.5-2.5,0.8c-0.8,0.3-1.7,0.6-2.5,0.9c-0.8,0.3-1.7,0.7-2.5,1.1
		c-0.8,0.4-1.7,0.9-2.5,1.4s-1.6,1.2-2.3,1.8c-1.4,1.5-2.6,3.2-3.4,5s-1.2,3.7-1.4,5.5c-0.1,0.9-0.1,1.8-0.1,2.7
		c0,0.9,0.1,1.7,0.2,2.6c0.1,1,0.3,2,0.4,2.9c-0.9,0.1-1.9,0.1-2.8,0.3h-0.4c-0.2,0-0.3,0-0.4,0.1l-0.9,0.2
		c-0.3,0.1-0.6,0.1-0.9,0.2s-0.6,0.1-0.9,0.2c-0.6,0.2-1.2,0.3-1.7,0.5c-0.6,0.2-1.1,0.4-1.7,0.6c-0.6,0.2-1.1,0.4-1.7,0.7l-0.8,0.4
		c-0.3,0.1-0.5,0.2-0.8,0.4c-2.2,1-4.3,2.1-6.3,3.4c-1,0.6-2,1.3-3,2l-0.4,0.3l-0.4,0.3c-0.3,0.2-0.5,0.4-0.7,0.6
		c-0.1,0.1-0.3,0.2-0.4,0.4c-0.1,0.1-0.3,0.2-0.4,0.4c-0.2,0.2-0.5,0.5-0.7,0.8c-0.9,1-1.5,2.1-2.1,3.3c-0.6,1.1-1,2.2-1.5,3.4
		c-0.8,2.3-1.5,4.6-2,6.9c-0.3,1.1-0.5,2.3-0.7,3.4l-0.3,1.7l-0.1,0.4l-0.1,0.4v0.2v-0.2v0.1v0.1l-0.1,0.2l0,0
		c-0.1,0.5-0.3,1-0.4,1.6c-0.1,0.5-0.2,1.1-0.3,1.6v0.2v0.2v0.4l-0.1,0.8c0,0.3,0,0.5-0.1,0.8l-0.1,0.8c-0.1,2.1,0,4.3,0.4,6.4
		c0.7,4.2,2.2,8.3,4.3,11.9c0.9,1.6,2,3.1,3.2,4.5c-0.1,0.3-0.1,0.6-0.2,1c-0.1,1.2-0.2,2.3-0.1,3.5c0.1,1.1,0.2,2.3,0.4,3.4
		c0.4,2.2,1,4.4,1.8,6.4c0.8,2.1,1.7,4,2.7,6c1,1.9,2.1,3.8,3.3,5.6c0.6,0.9,1.2,1.8,1.8,2.7c0.3,0.4,0.6,0.9,0.9,1.3
		c0.2,0.2,0.3,0.4,0.5,0.6l0.5,0.7l0.3,0.4l0.3,0.4l0.6,0.7c0.4,0.5,0.8,0.9,1.3,1.4c0.9,0.9,1.7,1.8,2.6,2.7
		c1.8,1.8,3.6,3.5,5.5,5.1c1.9,1.6,3.9,3.2,5.9,4.7c2.1,1.5,4.2,2.8,6.5,4c2.3,1.2,4.7,2.2,7.2,2.8c1.3,0.3,2.6,0.6,3.9,0.7
		c1.3,0.1,2.7,0,4.1-0.2c1.4-0.2,2.7-0.6,4-1.2l0.5-0.2c0.2-0.1,0.3-0.2,0.5-0.2l0.5-0.3c0.2-0.1,0.3-0.2,0.4-0.3l0.4-0.3l0.1-0.1
		l0.1-0.1l0.2-0.2c0.3-0.2,0.5-0.4,0.8-0.6l0.4-0.3l0.2-0.2l0.1-0.1l0.1-0.1l0.3-0.3l0.2-0.2l0.1-0.1l0.1-0.1l0,0l0.7-0.7l0.1-0.1
		c1.4,0,2.8-0.1,4.2-0.3h0.4l0.4-0.1l0.8-0.1c0.5-0.1,1-0.2,1.5-0.3c1-0.2,2-0.4,3-0.7l0,0h0.2h0.1l0.3-0.1l0.6-0.1l1.4-0.2
		c0.9-0.2,1.9-0.3,2.8-0.5c1.9-0.4,3.8-0.9,5.7-1.5s3.7-1.4,5.5-2.5c0.1,0,0.2-0.1,0.2-0.2c1.1,0.7,2.2,1.3,3.4,1.9
		c0.8,0.4,1.7,0.7,2.6,1c0.2,0.1,0.4,0.2,0.7,0.2c0.2,0.1,0.5,0.1,0.7,0.2c0.5,0.1,0.9,0.2,1.4,0.3c1.9,0.4,3.9,0.6,5.9,0.4
		c1-0.1,2-0.3,3-0.6s2-0.7,2.9-1.1l0.7-0.4c0.1-0.1,0.2-0.1,0.3-0.2l0.3-0.2c0.4-0.3,0.9-0.5,1.3-0.8c0.2-0.1,0.4-0.3,0.6-0.5
		l0.3-0.2c0.1-0.1,0.2-0.2,0.3-0.2l0.6-0.5c0.2-0.2,0.4-0.3,0.6-0.5c1.5-1.4,2.8-2.9,3.9-4.5c1.1-1.6,2.1-3.3,3-5
		c1.8-3.4,3.2-7,4.3-10.6c0.1-0.5,0.3-0.9,0.4-1.4c0.1-0.5,0.3-0.9,0.4-1.4c0.3-0.9,0.5-1.8,0.8-2.7l0.1-0.4l0.1-0.3l0.2-0.7
		l0.3-1.3c0.2-0.9,0.5-1.8,0.7-2.7c0.9-3.6,1.7-7.3,2.4-11c0.4-1.8,0.7-3.7,1-5.5c0.3-1.8,0.6-3.7,0.8-5.5c0.2-1.9,0.4-3.7,0.5-5.6
		C-87,393.7-86.9,391.8-87,389.9z M-117.7,367.7c0.8-1.2,1.5-2.5,2-3.9c0.4,0.6,0.8,1.1,1.2,1.7c0.3,0.4,0.5,0.8,0.8,1.2
		c0.1,0.2,0.3,0.4,0.5,0.6l0.1,0.2l0.1,0.2l0.2,0.2l0.1,0.1l0,0c0.6,0.7,1.2,1.4,1.8,2.1c0.3,0.4,0.6,0.7,0.9,1.1l0.4,0.6l0.2,0.3
		l0.2,0.3c0.1,0.1,0.2,0.3,0.3,0.4c-0.4,0.1-0.8,0.2-1.2,0.3h-0.1h-0.1h-0.1l-0.3,0.1c-0.2,0.1-0.4,0.1-0.6,0.2
		c-0.2,0.1-0.4,0.1-0.6,0.2c-0.1,0-0.2,0.1-0.3,0.1l-0.3,0.1c-0.4,0.1-0.8,0.3-1.2,0.4c-0.2,0.1-0.4,0.1-0.6,0.2
		c-0.2,0.1-0.4,0.1-0.6,0.2c-0.4,0.1-0.7,0.3-1.1,0.4c-0.2,0.1-0.4,0.1-0.6,0.2s-0.4,0.1-0.5,0.2c-0.4,0.1-0.7,0.3-1.1,0.4
		s-0.7,0.3-1.1,0.4c-2.8,1.2-5.5,2.4-8,3.7c-1.7,0.9-3.3,1.7-4.9,2.6c0.8-0.7,1.6-1.3,2.4-2c1-0.9,2-1.8,3-2.7
		c0.1-0.1,0.3-0.2,0.4-0.4c0.1-0.1,0.3-0.2,0.4-0.4l0.2-0.2l0.2-0.2l0.2-0.2l0.1-0.1l0.1-0.1c0.1-0.1,0.2-0.2,0.3-0.4l0.1-0.1
		l0.1-0.1l0.2-0.2c0.2-0.2,0.5-0.5,0.7-0.7c0.5-0.5,1-1,1.5-1.6c0.5-0.5,1-1.1,1.5-1.7C-119.5,370.4-118.6,369.1-117.7,367.7z
		 M-188.2,345.3c0.2-1.4,0.5-2.7,1-3.9c0.5-1.2,1.3-2.2,2.3-3.2c0.5-0.5,1-0.9,1.6-1.3s1.2-0.8,1.9-1.1c1.3-0.7,2.8-1.2,4.4-1.7
		c0.8-0.3,1.6-0.5,2.4-0.8c0.4-0.1,0.8-0.3,1.3-0.4c0.4-0.1,0.9-0.3,1.3-0.5c0.1,0,0.2-0.1,0.3-0.1l0.2-0.1l0,0h0.1l0.2-0.1h0.1
		c0.1,0,0.1,0,0.2-0.1h0.1h0.1c0.1,0,0.2-0.1,0.3-0.1l0.3-0.1l0.3-0.1c0.7-0.2,1.5-0.3,2.3-0.4c1.6-0.2,3.2-0.3,4.9-0.4
		c3.3-0.1,6.7,0.1,10.1,0.5c1.7,0.2,3.3,0.5,5,0.8c1.7,0.3,3.3,0.7,4.9,1.1s3.2,1,4.7,1.5c1.5,0.6,3,1.2,4.5,2
		c1.4,0.7,2.8,1.5,4.1,2.4c1.3,0.9,2.5,1.9,3.7,2.9c0.6,0.5,1.1,1.1,1.6,1.7l0.4,0.4c0.1,0.1,0.1,0.1,0.2,0.2l0.2,0.2l0.3,0.4
		l0.4,0.5l0.2,0.3l0.2,0.2l0.3,0.5c0.2,0.3,0.4,0.6,0.6,1c0.4,0.6,0.8,1.3,1.1,2c0.2,0.3,0.3,0.7,0.5,1c0.1,0.3,0.3,0.7,0.4,1
		c0.2,0.5,0.3,0.9,0.4,1.4c-0.5-0.4-1-0.7-1.5-1c-0.9-0.6-1.8-1.1-2.7-1.5c-0.5-0.2-1-0.4-1.4-0.6c-0.5-0.2-1-0.4-1.5-0.5
		c-2-0.6-4.2-0.8-6.3-0.7c-1.1,0.1-2.1,0.2-3.1,0.5l-0.7,0.1h-0.1c-0.1,0,0,0-0.1,0l0,0l0,0h-0.2l-0.3,0.1h-0.1h-0.1l-0.2,0.1
		l-0.4,0.1c-0.1,0-0.2,0.1-0.4,0.1c-0.2,0.1-0.5,0.2-0.7,0.3c-1.9,0.8-3.7,1.9-5.3,3.1c-1.6,1.2-3,2.6-4.3,4.1
		c-0.7,0.7-1.3,1.5-1.8,2.3c-0.6,0.8-1.1,1.6-1.7,2.4c-1.1,1.6-2,3.3-2.8,5.1c-0.8,1.7-1.6,3.5-2.2,5.3c-0.3,0.9-0.6,1.8-0.9,2.7
		c-0.1,0.5-0.3,0.9-0.4,1.4l-0.2,0.7c-0.1,0.2-0.1,0.5-0.2,0.7c-0.2,0.9-0.4,1.9-0.6,2.8c-0.2,0.9-0.3,1.9-0.5,2.8
		c-0.1,0.6-0.2,1.3-0.2,1.9c-0.5-1.9-1.1-3.7-1.8-5.6c-0.8-2.2-1.8-4.4-2.8-6.4c-1.1-2.1-2.3-4.1-3.7-6s-2.9-3.8-4.6-5.4l-0.6-0.6
		c-0.2-0.2-0.4-0.4-0.7-0.6c-0.4-0.4-0.9-0.8-1.4-1.2c-0.2-0.2-0.5-0.4-0.7-0.6c-0.2-0.2-0.5-0.4-0.7-0.6l-0.7-0.5
		c-0.1-0.1-0.2-0.2-0.4-0.3l-0.4-0.1l-0.8-0.5l-0.7-0.5c-0.1-0.1-0.3-0.2-0.4-0.2l-0.4-0.2c-0.3-0.1-0.5-0.3-0.8-0.4l-0.8-0.4
		l-0.2-0.1l-0.2-0.1l-0.5-0.2l-0.4-0.2c-0.1,0-0.1-0.1-0.2-0.1l-0.2-0.1l-0.4-0.2l-0.2-0.1h-0.1h-0.1l0,0h-0.1c-1-0.3-2-0.6-3-0.7
		c-0.2-1.2-0.4-2.5-0.6-3.7c-0.1-0.7-0.1-1.4-0.1-2.1C-188.3,346.7-188.3,346-188.2,345.3z M-214.8,406.1l-0.5,0.7l-0.2,0.4
		l-0.2,0.3l-0.4,0.7l-0.1,0.1l0,0l-0.1,0.2c-0.1,0.1-0.1,0.3-0.2,0.4l-0.2,0.4c0,0,0,0.1-0.1,0.1c-0.4-0.7-0.9-1.3-1.3-2
		c-1.8-3.3-3.1-6.9-3.6-10.6c-0.2-1.8-0.3-3.7-0.2-5.6l0.1-0.7c0-0.2,0-0.5,0.1-0.7l0.1-0.7v-0.3v-0.2v-0.2l0.1-0.7
		c0-0.2,0.1-0.5,0.1-0.7c0.1-0.4,0.2-0.9,0.3-1.3l0,0l0.1-0.2v-0.1v-0.1l0.1-0.3v-0.2l0.1-0.4l0.1-0.4l0.3-1.7
		c0.2-1.1,0.4-2.2,0.6-3.3c0.5-2.2,1-4.3,1.7-6.4c0.4-1,0.8-2,1.2-3c0.5-0.9,1-1.8,1.6-2.5c0.1-0.2,0.3-0.4,0.5-0.5
		c0.1-0.1,0.2-0.2,0.2-0.2c0.1-0.1,0.2-0.2,0.2-0.2c0.2-0.2,0.4-0.4,0.6-0.5l0.3-0.2l0.3-0.3c0.9-0.7,1.8-1.3,2.7-1.9
		c1.8-1.2,3.8-2.3,5.8-3.3c0.2-0.1,0.5-0.2,0.7-0.4l0.8-0.3c0.5-0.2,1-0.4,1.5-0.6c0.5-0.2,1-0.4,1.5-0.6c0.5-0.2,1-0.3,1.6-0.5
		c0.3-0.1,0.5-0.2,0.8-0.2c0.3-0.1,0.5-0.1,0.8-0.2l0.8-0.2c0.1,0,0.3-0.1,0.4-0.1l0.4-0.1c1-0.2,2-0.3,3-0.3c0,0.1,0.1,0.3,0.1,0.4
		l0.1,0.3v0.1v0.1v0.1c0.1,0.4,0.2,0.8,0.4,1.1c0.1,0.2,0.1,0.4,0.2,0.6c0.1,0.2,0.1,0.4,0.2,0.6c1,3,2.3,5.8,3.6,8.3
		c1.3,2.6,2.8,5,4.3,7.2c0.2,0.3,0.4,0.6,0.6,0.8c0.2,0.3,0.4,0.5,0.6,0.8c0.4,0.5,0.7,1.1,1.1,1.6c0.4,0.5,0.8,1,1.1,1.5
		c0.4,0.5,0.8,1,1.1,1.5c1.5,1.9,3,3.7,4.4,5.3c2.9,3.2,5.5,5.9,7.8,8c0.8,0.7,1.5,1.4,2.2,2h-0.1l-0.7-0.3l-1.5-0.5
		c-0.5-0.2-1-0.3-1.5-0.5l-1.5-0.5l-1.5-0.4l-0.8-0.2l-0.4-0.1l-0.4-0.1l-1.6-0.4c-0.3-0.1-0.5-0.1-0.8-0.2l-0.6-0.4l-1.6-0.3
		c-0.5-0.1-1.1-0.2-1.6-0.3l-0.8-0.1c-0.1,0-0.3,0-0.4-0.1h-0.4l-1.6-0.2c-0.5-0.1-1.1-0.1-1.6-0.1l-0.8-0.1h-0.8h-0.8h-0.4h-0.2
		h-0.2h-1.6c-2.2,0.1-4.4,0.4-6.5,0.8c-2.2,0.5-4.3,1.1-6.3,2c-2,0.9-4,2-5.7,3.4c-1.8,1.3-3.4,2.9-4.9,4.5
		c-0.4,0.4-0.7,0.8-1.1,1.3l-0.5,0.7l-0.5,0.7l-0.2,0.3l-0.1,0.2L-214.8,406.1z M-163.6,462l-0.2,0.1l-0.1,0.1l-0.1,0.1l-0.3,0.2
		c-0.1,0.1-0.2,0.1-0.3,0.2l-0.4,0.2c-0.1,0.1-0.2,0.1-0.4,0.2l-0.4,0.2c-1,0.4-2,0.7-3,0.9c-2.1,0.3-4.3,0.1-6.5-0.5
		s-4.3-1.5-6.3-2.7c-2-1.1-4-2.4-5.9-3.8c-1.9-1.4-3.7-2.9-5.5-4.5c-1.8-1.6-3.5-3.3-5.2-5c-0.8-0.9-1.7-1.7-2.5-2.6
		c-0.4-0.4-0.8-0.9-1.2-1.3l-0.6-0.7l-0.3-0.3l-0.2-0.3l-1.8-2.4c-0.6-0.8-1.2-1.7-1.8-2.5c-1.1-1.7-2.2-3.4-3.2-5.2
		c-1-1.8-1.9-3.6-2.6-5.4c-0.7-1.9-1.4-3.7-1.8-5.7c-0.2-1-0.3-1.9-0.4-2.9c0-0.2,0-0.4,0-0.7c0.6,0.5,1.1,0.9,1.7,1.3l0.3,0.2
		c0.1,0.1,0.2,0.1,0.3,0.2l0.7,0.4l0.2,0.1l0.2,0.1l0.3,0.2c0.2,0.1,0.5,0.3,0.7,0.4c1,0.5,1.9,1,3,1.3l0.4,0.1
		c0.1,0,0.3,0.1,0.4,0.1l0.8,0.2l0.2,0.1c0.1,0,0.1,0,0.2,0.1l0.4,0.1l0.8,0.2c1.1,0.2,2.3,0.2,3.3,0.2c2.2-0.1,4.2-0.5,6.3-1
		c2-0.5,4-1.2,5.9-1.9c1.9-0.7,3.8-1.5,5.6-2.4c1.8-0.9,3.7-1.8,5.4-2.7c0.9-0.5,1.8-0.9,2.6-1.4c-0.6,0.7-1.2,1.4-1.8,2.1
		c-1.3,1.6-2.5,3.2-3.6,4.9c-1.1,1.7-2.1,3.5-3,5.4c-0.8,1.9-1.5,3.9-2,5.9l-0.1,0.4c0,0.1-0.1,0.3-0.1,0.4l-0.1,0.8
		c-0.1,0.5-0.1,1-0.2,1.6v0.4l0,0l0,0l0,0v0.1v0.2v0.4v0.4c0,0.1,0,0.3,0,0.4v0.4c0,0.3,0,0.5,0,0.8c0,2.1,0.4,4.2,0.9,6.3
		c0.6,2.1,1.4,4,2.5,5.9c1.1,1.8,2.5,3.5,4.1,5c1.6,1.5,3.4,2.7,5.3,3.7s4,1.7,6.1,2.1c1,0.2,2.1,0.4,3.1,0.5c0.1,0,0.3,0,0.4,0
		C-163.4,461.8-163.5,461.9-163.6,462z M-138.6,453.6c-1.7,0.5-3.4,0.9-5.2,1.2c-0.9,0.2-1.8,0.3-2.7,0.4c-0.5,0.1-0.9,0.1-1.4,0.2
		c-0.2,0-0.5,0.1-0.7,0.1h-0.2h-0.2l-0.2,0.1h-0.2l0,0c-0.9,0.2-1.8,0.5-2.7,0.7c-0.5,0.1-0.9,0.2-1.4,0.3l-0.7,0.1l-0.3,0.1
		l-0.3,0.1l0,0c0.4-0.7,0.8-1.4,1.1-2.1c0.6-1.2,1-2.4,1.5-3.6c0.8-2.4,1.4-4.9,1.8-7.4c0.3-2.5,0.5-5,0.5-7.5s-0.2-5-0.5-7.5
		c0-0.4-0.1-0.9-0.2-1.3c1,2.7,2.1,5.5,3.3,8.5c0.6,1.3,1.2,2.6,1.8,4c0.7,1.3,1.4,2.7,2.2,4.1c0.4,0.7,0.9,1.4,1.4,2.1
		c0.1,0.2,0.3,0.3,0.4,0.5c0.1,0.1,0.2,0.2,0.2,0.3c0.1,0.1,0.2,0.2,0.2,0.3c0.1,0.1,0.3,0.3,0.4,0.4c0.1,0.1,0.3,0.3,0.4,0.4
		c1.1,1.2,2.3,2.3,3.6,3.4c0.4,0.3,0.8,0.7,1.3,1C-136.5,452.8-137.5,453.2-138.6,453.6z M-128.3,446.8c-0.2,0.3-0.5,0.7-0.7,1
		c-0.3,0.3-0.5,0.6-0.8,0.9c-0.3,0.3-0.6,0.6-0.9,0.8c-0.1,0.1-0.2,0.2-0.4,0.3c-0.3-0.2-0.6-0.4-0.9-0.6c-0.6-0.4-1.2-0.9-1.8-1.4
		c-1.2-0.9-2.3-1.9-3.4-3c-0.1-0.1-0.3-0.3-0.4-0.4c-0.1-0.1-0.3-0.3-0.4-0.4l-0.2-0.2c-0.1-0.1-0.1-0.1-0.2-0.2s-0.2-0.2-0.3-0.4
		c-0.4-0.5-0.8-1.1-1.2-1.7c-0.8-1.2-1.5-2.4-2.1-3.7c-0.7-1.2-1.3-2.5-1.9-3.7c-1.2-2.5-2.2-4.9-3.2-7.2c-1-2.3-1.9-4.5-2.7-6.6
		c-1.7-4.2-3-7.9-4.2-10.9c-0.7-2-1.3-3.6-1.8-5c-0.7,0.4-1.5,0.7-2.4,0.7c0.2,0.8,0.4,1.6,0.6,2.4c0.6,2.4,1.2,4.7,1.7,7.1
		s1,4.7,1.4,7.1c0.4,2.4,0.7,4.8,1,7.2c0.2,2.4,0.3,4.8,0.3,7.2s-0.2,4.8-0.6,7.1c-0.4,2.3-0.9,4.6-1.8,6.8
		c-0.4,1.1-0.9,2.2-1.4,3.2s-1.1,2-1.8,3c-0.2,0.3-0.5,0.7-0.7,1c-0.4,0-0.9,0-1.3,0c-0.9,0-1.8,0-2.8-0.1c-0.9-0.1-1.8-0.2-2.7-0.4
		c-1.8-0.3-3.5-0.9-5.1-1.7s-3.1-1.7-4.5-2.9c-1.4-1.2-2.5-2.5-3.5-4s-1.7-3.2-2.3-4.9c-0.5-1.7-0.9-3.6-1-5.4c0-0.2,0-0.5,0-0.7
		v-0.3c0-0.1,0-0.2,0-0.3v-0.3v-0.4v-0.2v-0.1l0,0l0,0l0,0v-0.3c0-0.5,0.1-0.9,0.1-1.4l0.1-0.7c0-0.1,0-0.2,0.1-0.3l0.1-0.3
		c0.3-1.8,0.9-3.6,1.6-5.4c0.7-1.7,1.6-3.4,2.6-5.1c1-1.6,2.1-3.2,3.3-4.7c2.4-3.1,5.1-5.9,7.9-8.6c0.5-0.5,1-0.9,1.5-1.4
		c1-0.7,2-1.4,3-2.2c0.3-0.3,0.6-0.5,1-0.8c-0.7-0.5-1.3-1.2-1.6-1.9c-1.4,1.1-2.7,2.2-4,3.3c-0.5,0.3-1,0.7-1.6,1
		c-1.7,1.1-3.4,2.1-5.1,3c-1.7,1-3.5,1.9-5.2,2.8c-1.8,0.9-3.6,1.7-5.4,2.5c-0.9,0.4-1.8,0.8-2.7,1.1c-0.9,0.4-1.8,0.7-2.8,1
		c-1.8,0.6-3.7,1.2-5.6,1.6c-1.9,0.4-3.8,0.7-5.6,0.7c-0.9,0-1.8-0.1-2.6-0.2l-0.7-0.2l-0.4-0.1c-0.1,0-0.1,0-0.2,0h-0.2l-0.6-0.2
		c-0.1,0-0.2-0.1-0.3-0.1l0,0c-0.9-0.3-1.7-0.7-2.5-1.2c-0.2-0.1-0.4-0.2-0.6-0.4l-0.3-0.2l-0.1-0.1l-0.1-0.1l-0.6-0.3
		c-0.1-0.1-0.2-0.1-0.3-0.2l-0.3-0.2c-1.2-0.9-2.3-1.9-3.3-3c0-0.1,0.1-0.3,0.1-0.4l0.1-0.3c0-0.1,0.1-0.2,0.1-0.3s0.1-0.2,0.1-0.3
		l0.1-0.3c0-0.1,0.1-0.2,0.1-0.3l0.1-0.3c0.1-0.1,0.1-0.2,0.2-0.3l0.1-0.2l0,0l0,0l0,0v-0.1l0.4-0.7l0.2-0.3
		c0.1-0.1,0.1-0.2,0.2-0.3l0.4-0.6l0.1-0.2l0.1-0.2l0.2-0.3l0.4-0.6l0.4-0.6c0.3-0.4,0.6-0.8,0.9-1.2c1.3-1.5,2.7-2.9,4.2-4.1
		c1.6-1.2,3.3-2.3,5.1-3.1c1.8-0.9,3.7-1.5,5.6-2c2-0.5,4-0.8,6-0.9l1.5-0.1h0.2h0.2h0.4h0.8h0.8h0.8c0.5,0,1,0,1.5,0.1l1.5,0.1h0.4
		c0.1,0,0.3,0,0.4,0l0.8,0.1c0.5,0.1,1,0.1,1.5,0.2l1.5,0.3l0.8,0.1c0.3,0,0.5,0.1,0.8,0.2l1.5,0.3l0.4,0.1l0.4,0.1l0.8,0.2l1.5,0.4
		l1.5,0.4c0.5,0.2,1,0.3,1.5,0.5l1.5,0.5l0.7,0.2c0.2,0.1,0.5,0.2,0.7,0.3c0.4,0.2,0.9,0.3,1.3,0.5c0-0.2,0-0.3,0.1-0.5
		c0.3-1.2,1.1-2.2,2-2.8c-0.9-1-2.1-2.2-3.4-3.6c-0.5-0.6-1-1.2-1.6-1.8c-0.3-0.3-0.6-0.6-0.8-1c-0.3-0.3-0.6-0.7-0.9-1
		c-1.2-1.4-2.4-2.9-3.7-4.6c-2.6-3.3-5.4-7.1-8-11.5c-1.3-2.2-2.6-4.5-3.8-7c-0.3-0.6-0.6-1.2-0.9-1.9c-0.3-0.6-0.5-1.3-0.8-1.9
		c-0.3-0.7-0.5-1.3-0.8-2c-0.1-0.2-0.1-0.3-0.2-0.5c-0.1-0.2-0.1-0.3-0.2-0.5c-0.1-0.3-0.2-0.7-0.3-1c-0.1-0.2-0.1-0.3-0.2-0.5
		c0-0.2-0.1-0.3-0.1-0.5c0-0.1-0.1-0.2-0.1-0.3c0.4,0.1,0.8,0.2,1.2,0.3l0,0l0,0l0,0h0.1l0.2,0.1l0.4,0.1l0.2,0.1
		c0.1,0,0.1,0,0.2,0.1l0.4,0.1l0.4,0.1l0.2,0.1c0.1,0,0.1,0.1,0.2,0.1l0.7,0.3c0.2,0.1,0.5,0.2,0.7,0.4l0.4,0.2
		c0.1,0.1,0.2,0.1,0.4,0.2l0.7,0.4l0.7,0.4l0.3,0.2c0.1,0.1,0.2,0.2,0.3,0.2l0.7,0.5c0.2,0.2,0.4,0.3,0.7,0.5
		c0.2,0.2,0.4,0.3,0.7,0.5c0.4,0.3,0.9,0.7,1.3,1.1c0.2,0.2,0.4,0.4,0.6,0.5l0.6,0.6c1.6,1.5,3.1,3.2,4.4,5c1.3,1.8,2.5,3.7,3.6,5.6
		c1.1,2,2,4,2.8,6.1s1.5,4.2,2.1,6.4c0.6,2.2,1.1,4.4,1.5,6.6l0.3,1.7v0.1v0.1v0.1c0.7-0.2,1.5-0.3,2.2-0.2v-0.3v-0.3v-0.7v-0.7
		v-0.3v-0.3v-0.7c0-0.9,0.1-1.8,0.1-2.7c0-0.2,0-0.5,0.1-0.7l0.1-0.7c0.1-0.5,0.1-0.9,0.2-1.4c0.1-0.9,0.3-1.8,0.4-2.7
		c0.2-0.9,0.3-1.8,0.5-2.7c0.2-0.9,0.4-1.8,0.7-2.6c0.1-0.2,0.1-0.4,0.2-0.7l0.2-0.7c0.1-0.4,0.3-0.9,0.4-1.3
		c0.3-0.9,0.6-1.7,0.9-2.6c0.7-1.7,1.4-3.3,2.3-4.9c0.8-1.6,1.8-3.1,2.8-4.6c0.5-0.7,1-1.5,1.6-2.1c0.6-0.7,1.1-1.4,1.7-2
		c1.2-1.3,2.5-2.5,3.9-3.5c1.4-1,2.9-1.8,4.4-2.4c0.2-0.1,0.4-0.1,0.6-0.2c0.1,0,0.2-0.1,0.3-0.1l0.3-0.1h0.1h0.1h0.1l0.3-0.1h0.2
		l0,0l0,0c0,0,0.1,0,0,0h0.1l0.3-0.1c0.8-0.2,1.6-0.2,2.4-0.3c0.8,0,1.6,0,2.4,0.1c0.4,0.1,0.8,0.1,1.2,0.2s0.8,0.2,1.2,0.3
		c0.4,0.1,0.8,0.3,1.1,0.4c0.4,0.2,0.7,0.3,1.1,0.5c0.7,0.4,1.4,0.8,2.1,1.3c1.4,1,2.6,2.1,3.8,3.4c0.1,0.2,0.3,0.3,0.4,0.5
		c-0.4,2.1-1.2,4-2.3,5.8c-0.7,1.2-1.5,2.3-2.4,3.4c-0.9,1.1-1.8,2.1-2.8,3.1c-0.2,0.3-0.5,0.5-0.7,0.8l-0.2,0.2l-0.1,0.1l-0.1,0.1
		c-0.1,0.1-0.2,0.3-0.4,0.4l-0.1,0.1l-0.1,0.1l-0.1,0.2l-0.1,0.2l-0.2,0.2c-0.1,0.1-0.2,0.2-0.3,0.4c-0.1,0.1-0.2,0.2-0.4,0.4
		c-0.9,0.9-1.9,1.8-2.9,2.7c-1.9,1.8-3.8,3.4-5.5,5c-1.8,1.6-3.5,3.1-5.1,4.4c-3.2,2.7-6.1,5.1-8.5,6.9c-0.3,0.2-0.6,0.4-0.9,0.7
		c-1.1,0.7-2,1.4-2.8,1.9c0.6,0.6,1.1,1.3,1.4,2.1c0.1-0.1,0.3-0.2,0.4-0.3c0.4-0.2,0.8-0.5,1.2-0.8c0.3-0.2,0.6-0.4,0.9-0.6
		c0.6-0.4,1.3-0.8,2-1.2c1.4-0.8,2.9-1.7,4.6-2.7c1.7-1,3.5-2,5.5-3c4-2.1,8.5-4.5,13.5-6.7c2.5-1.1,5.1-2.3,7.9-3.3
		c0.3-0.1,0.7-0.3,1-0.4c0.3-0.1,0.7-0.2,1-0.4c0.2-0.1,0.4-0.1,0.5-0.2c0.2-0.1,0.4-0.1,0.5-0.2c0.4-0.1,0.7-0.2,1.1-0.4
		c0.2-0.1,0.4-0.1,0.5-0.2c0.2-0.1,0.4-0.1,0.5-0.2c0.4-0.1,0.7-0.2,1.1-0.3l0.3-0.1c0.1,0,0.2-0.1,0.3-0.1c0.2-0.1,0.4-0.1,0.6-0.2
		s0.4-0.1,0.6-0.2l0.3-0.1h0.1c0,0,0.1,0,0,0h0.1c0.4-0.1,0.7-0.2,1.1-0.3c0.2,0,0.4-0.1,0.6-0.1s0.4-0.1,0.6-0.1
		c0.1,0,0.2,0,0.4-0.1c0,0.1,0.1,0.1,0.1,0.2c0.4,0.8,0.8,1.7,1.1,2.5c0.3,0.9,0.6,1.7,0.9,2.6c0.5,1.7,0.8,3.5,0.8,5.3
		c0,1.8-0.1,3.6-0.6,5.3c-0.4,1.7-1.1,3.4-2.1,4.9c-0.9,1.5-2.1,3-3.4,4.2c-1.3,1.3-2.8,2.3-4.4,3.2c-0.2,0.1-0.4,0.2-0.6,0.3
		l-0.3,0.2c-0.1,0.1-0.2,0.1-0.3,0.1l-0.3,0.1l-0.3,0.2l-0.2,0.1h-0.1l0,0l0,0l0,0l-0.3,0.1c-0.4,0.2-0.8,0.4-1.3,0.5l-0.7,0.2
		c-0.1,0-0.2,0.1-0.3,0.1l-0.2,0.8c-1.8,0.5-3.6,0.8-5.5,0.9s-3.8,0.1-5.7-0.1c-1.9-0.2-3.8-0.5-5.7-0.8c-3.7-0.7-7.3-1.8-10.8-3.1
		l-0.2-0.1c-0.2-0.1-0.4-0.2-0.6-0.3c-0.8-0.5-1.7-0.9-2.5-1.3l-0.6-0.3l-0.4-0.2l-0.3-0.1l-0.7-0.3l-0.6-0.3l-0.3-0.1l-0.3-0.1
		h-0.1c0,0.2,0,0.4-0.1,0.6c-0.2,0.7-0.5,1.3-0.9,1.9c2.1,1,4.3,2,6.5,2.9c0.1,0,0.1,0,0.2,0.1l0.3,0.2c0.4,0.2,0.8,0.5,1.2,0.7
		c0.8,0.5,1.5,1,2.2,1.6c0.7,0.5,1.5,1.1,2.2,1.7c0.7,0.6,1.4,1.2,2.1,1.8c0.2,0.2,0.3,0.3,0.5,0.5l0.5,0.5c0.3,0.3,0.7,0.6,1,0.9
		c0.6,0.6,1.3,1.3,1.9,2c1.2,1.3,2.4,2.7,3.4,4.2c1.1,1.5,2,3,2.9,4.5c0.4,0.8,0.8,1.6,1.2,2.4c0.4,0.8,0.7,1.6,1,2.5
		c0.6,1.7,1.1,3.4,1.4,5.1s0.4,3.4,0.2,5.1c0,0.2,0,0.4-0.1,0.6c0,0.1,0,0.2,0,0.3l-0.1,0.3v0.1v0.1v0.1l-0.1,0.3v0.2l0,0l0,0
		c0,0,0,0.1,0,0v0.1l-0.1,0.3c-0.2,0.8-0.5,1.6-0.8,2.3C-127.4,445.4-127.8,446.1-128.3,446.8z M-92.4,395.2
		c-0.1,1.7-0.3,3.5-0.5,5.3c-0.5,3.5-1.1,7.1-1.8,10.7s-1.5,7.2-2.4,10.7l-0.7,2.7l-0.3,1.3l-0.2,0.7l-0.1,0.3l-0.1,0.3
		c-0.2,0.9-0.5,1.8-0.7,2.6c-0.1,0.4-0.2,0.9-0.4,1.3c-0.1,0.4-0.3,0.9-0.4,1.3c-0.5,1.7-1.1,3.4-1.8,5c-0.6,1.6-1.4,3.2-2.1,4.8
		c-0.8,1.5-1.6,3-2.6,4.4c-0.1,0.2-0.2,0.3-0.4,0.5l-0.4,0.5c-0.3,0.3-0.5,0.6-0.8,1c-0.5,0.6-1.1,1.2-1.6,1.7
		c-0.1,0.1-0.3,0.3-0.4,0.4l-0.4,0.4c-0.1,0.1-0.1,0.1-0.2,0.2l-0.2,0.2c-0.2,0.1-0.3,0.2-0.5,0.3c-0.3,0.2-0.6,0.4-0.9,0.6
		l-0.2,0.1c-0.1,0-0.2,0.1-0.2,0.1l-0.5,0.3c-0.7,0.3-1.3,0.6-2,0.8s-1.4,0.4-2.1,0.4c-1.4,0.2-2.9,0.1-4.4-0.2
		c-0.4-0.1-0.7-0.2-1.1-0.2c-0.2-0.1-0.4-0.1-0.5-0.2c-0.2,0-0.4-0.1-0.5-0.2c-0.7-0.2-1.4-0.5-2.1-0.8c-0.4-0.2-0.9-0.4-1.3-0.6
		c0.2-0.2,0.3-0.3,0.5-0.5c1.4-1.5,2.6-3.3,3.4-5.3c0.4-1,0.7-2,1-3l0.1-0.4v-0.1v-0.1l0,0l0,0v-0.2l0.1-0.3v-0.1v-0.1v-0.2l0.1-0.4
		c0-0.1,0-0.3,0-0.4c0-0.3,0.1-0.5,0.1-0.8c0.1-2.1,0-4.1-0.4-6.1s-1-3.9-1.7-5.7c-0.4-0.9-0.8-1.8-1.2-2.7
		c-0.4-0.9-0.9-1.7-1.4-2.6c-1-1.7-2.1-3.3-3.3-4.8c-1.2-1.5-2.4-3-3.8-4.3c-0.7-0.7-1.3-1.4-2.1-2c-0.3-0.3-0.7-0.6-1.1-1l-0.5-0.5
		c-0.2-0.2-0.4-0.3-0.5-0.5c-0.3-0.3-0.7-0.5-1-0.8c0.8,0.2,1.7,0.5,2.5,0.7c2,0.5,4,0.8,6,1.1c2,0.2,4.1,0.3,6.2,0.3
		c2.1-0.1,4.2-0.3,6.2-0.8l0.4-0.1c0.1,0,0.3-0.1,0.4-0.1l0.8-0.2c0.5-0.1,1-0.3,1.5-0.5l0.4-0.1l0,0l0,0l0,0h0.1l0.2-0.1l0.3-0.1
		l0.4-0.2c0.1-0.1,0.3-0.1,0.4-0.2l0.4-0.2c0.2-0.1,0.5-0.2,0.7-0.4c1.9-1,3.6-2.2,5.2-3.6s3-3.1,4.2-4.9c1.2-1.8,2.1-3.8,2.7-5.9
		c0.6-2.1,0.9-4.3,0.9-6.4c0-2.2-0.3-4.3-0.8-6.4c-0.3-1-0.6-2.1-0.9-3.1c-0.2-0.5-0.4-1-0.6-1.5c0.4,0,0.9,0,1.3,0.1
		c0.7,0.1,1.4,0.2,2,0.4c0.6,0.2,1.2,0.5,1.7,0.8c0.5,0.3,1,0.8,1.4,1.3s0.8,1.1,1.1,1.7c0.3,0.6,0.6,1.3,0.8,2
		c0.2,0.7,0.4,1.5,0.5,2.3l0.1,0.6l0.1,0.6c0,0.2,0,0.4,0.1,0.6c0,0.2,0,0.4,0.1,0.6c0,0.4,0.1,0.8,0.1,1.2c0,0.2,0,0.4,0,0.6v0.6
		C-92.2,391.7-92.2,393.4-92.4,395.2z"/>
	<path class="st1" d="M-144.3,408.4l1-3.8l-7.3-6.2c0,0,0,0-1.7-2.4c7.5-6.4,2-12.6,2-12.6s-7.3,5.6-8.1,8.8
		c-0.2-2.3-6.3-7.9-6.3-7.9s-1.5,0.7-2.2,1.8c-0.6,0.9,3.6,8.7,4.8,10.9c1.2-1.4,3.1-2,5-1.5c2.7,0.7,4.3,3.4,3.6,6.1
		c-0.7,2.7-3.4,4.3-6.1,3.6c-2.7-0.7-4.3-3.4-3.6-6.1c0.2-0.8,0.6-1.4,1-2c-4.3-4.7-14.5-2.3-14.5-2.3v4.1c0,0,1.7,0.2,3.2,0.8
		c0.4,1,9,3.4,9,3.4l-6.4,3.9l4,5.1l6.5-5c0,0,0.1,8-0.7,11c2.2,0.8,6.3-1.1,8.4-1.7c0.9-5.8-3.6-10-3.6-10l1.5-0.9L-144.3,408.4z"
		/>
</g>
</svg>
